<svg width="16" height="16" viewBox="0 0 16 16" fill="none" xmlns="http://www.w3.org/2000/svg">
<path d="M12.9793 3.02222H11.5571V1.6H4.44601V3.02222H3.02378C2.24156 3.02222 1.60156 3.66222 1.60156 4.44444V5.15555C1.60156 6.96889 2.9669 8.448 4.72334 8.66844C5.17134 9.73511 6.13134 10.5387 7.29045 10.7733V12.9778H4.44601V14.4H11.5571V12.9778H8.71267V10.7733C9.87179 10.5387 10.8318 9.73511 11.2798 8.66844C13.0362 8.448 14.4016 6.96889 14.4016 5.15555V4.44444C14.4016 3.66222 13.7616 3.02222 12.9793 3.02222ZM3.02378 5.15555V4.44444H4.44601V7.16089C3.62112 6.86222 3.02378 6.08 3.02378 5.15555ZM8.00156 9.42222C6.82823 9.42222 5.86823 8.46222 5.86823 7.28889V3.02222H10.1349V7.28889C10.1349 8.46222 9.1749 9.42222 8.00156 9.42222ZM12.9793 5.15555C12.9793 6.08 12.382 6.86222 11.5571 7.16089V4.44444H12.9793V5.15555Z" fill="#8951FF"/>
</svg>
